name E:\Dropbox\SEL\BOX\Experiment\240124_SUB1_PJH\c3d\XYZ\UpDown_TrcMot\15_10_trial2_D1_ExtLoadAPP2.mot
datacolumns 37
datarows 13
range 8.15 8.162
endheader

time	    ground_force1_vx	    ground_force1_vy	    ground_force1_vz	    ground_force1_px	    ground_force1_py	    ground_force1_pz	    ground_torque1_x	    ground_torque1_y	    ground_torque1_z	    ground_force2_vx	    ground_force2_vy	    ground_force2_vz	    ground_force2_px	    ground_force2_py	    ground_force2_pz	    ground_torque2_x	    ground_torque2_y	    ground_torque2_z	      hand_force3_vx	      hand_force3_vy	      hand_force3_vz	      hand_force3_px	      hand_force3_py	      hand_force3_pz	      hand_torque3_x	      hand_torque3_y	      hand_torque3_z	      hand_force4_vx	      hand_force4_vy	      hand_force4_vz	      hand_force4_px	      hand_force4_py	      hand_force4_pz	      hand_torque4_x	      hand_torque4_y	      hand_torque4_z	
8.15	         32.77840077	        466.23752885	         -6.00055140	          0.22659290	          0.00000000	          0.26893899	          0.00000000	         -6.05235325	          0.00000000	        -34.03683795	        451.22468260	        -16.80536588	          0.57126421	          0.00000000	          0.25176291	          0.00000000	          3.38092910	          0.00000000	          0.00000000	          0.00000000	          0.00000000	          0.00000000	          0.00000000	          0.00000000	          0.00000000	          0.00000000	          0.00000000	          0.00000000	          0.00000000	          0.00000000	          0.00000000	          0.00000000	          0.00000000	          0.00000000	          0.00000000	          0.00000000	
8.151	         32.85012985	        466.78641339	         -5.97933369	          0.22659252	          0.00000000	          0.26897322	          0.00000000	         -6.07047437	          0.00000000	        -34.04377576	        451.43253313	        -16.68720716	          0.57128512	          0.00000000	          0.25160395	          0.00000000	          3.38263974	          0.00000000	          0.00000000	          0.00000000	          0.00000000	          0.00000000	          0.00000000	          0.00000000	          0.00000000	          0.00000000	          0.00000000	          0.00000000	          0.00000000	          0.00000000	          0.00000000	          0.00000000	          0.00000000	          0.00000000	          0.00000000	          0.00000000	
8.152	         32.92909700	        467.35171317	         -5.95552782	          0.22659217	          0.00000000	          0.26900949	          0.00000000	         -6.08878785	          0.00000000	        -34.05065152	        451.65469151	        -16.56582722	          0.57130513	          0.00000000	          0.25144690	          0.00000000	          3.38428650	          0.00000000	          0.00000000	          0.00000000	          0.00000000	          0.00000000	          0.00000000	          0.00000000	          0.00000000	          0.00000000	          0.00000000	          0.00000000	          0.00000000	          0.00000000	          0.00000000	          0.00000000	          0.00000000	          0.00000000	          0.00000000	          0.00000000	
8.153	         33.01515902	        467.93229749	         -5.92918845	          0.22659181	          0.00000000	          0.26904766	          0.00000000	         -6.10728505	          0.00000000	        -34.05747058	        451.89164267	        -16.44139786	          0.57132421	          0.00000000	          0.25129194	          0.00000000	          3.38586829	          0.00000000	          0.00000000	          0.00000000	          0.00000000	          0.00000000	          0.00000000	          0.00000000	          0.00000000	          0.00000000	          0.00000000	          0.00000000	          0.00000000	          0.00000000	          0.00000000	          0.00000000	          0.00000000	          0.00000000	          0.00000000	          0.00000000	
8.154	         33.10814970	        468.52698547	         -5.90038357	          0.22659139	          0.00000000	          0.26908755	          0.00000000	         -6.12595681	          0.00000000	        -34.06424027	        452.14383874	        -16.31410047	          0.57134233	          0.00000000	          0.25113920	          0.00000000	          3.38738413	          0.00000000	          0.00000000	          0.00000000	          0.00000000	          0.00000000	          0.00000000	          0.00000000	          0.00000000	          0.00000000	          0.00000000	          0.00000000	          0.00000000	          0.00000000	          0.00000000	          0.00000000	          0.00000000	          0.00000000	          0.00000000	          0.00000000	
8.155	         33.20788042	        469.13455117	         -5.86919429	          0.22659086	          0.00000000	          0.26912901	          0.00000000	         -6.14479351	          0.00000000	        -34.07096992	        452.41169735	        -16.18412544	          0.57135948	          0.00000000	          0.25098886	          0.00000000	          3.38883319	          0.00000000	          0.00000000	          0.00000000	          0.00000000	          0.00000000	          0.00000000	          0.00000000	          0.00000000	          0.00000000	          0.00000000	          0.00000000	          0.00000000	          0.00000000	          0.00000000	          0.00000000	          0.00000000	          0.00000000	          0.00000000	          0.00000000	
8.156	         33.31414100	        469.75372887	         -5.83571459	          0.22659019	          0.00000000	          0.26917188	          0.00000000	         -6.16378507	          0.00000000	        -34.07767074	        452.69559992	        -16.05167152	          0.57137562	          0.00000000	          0.25084106	          0.00000000	          3.39021479	          0.00000000	          0.00000000	          0.00000000	          0.00000000	          0.00000000	          0.00000000	          0.00000000	          0.00000000	          0.00000000	          0.00000000	          0.00000000	          0.00000000	          0.00000000	          0.00000000	          0.00000000	          0.00000000	          0.00000000	          0.00000000	          0.00000000	
8.157	         33.42670047	        470.38321844	         -5.80005098	          0.22658934	          0.00000000	          0.26921599	          0.00000000	         -6.18292097	          0.00000000	        -34.08435586	        452.99589023	        -15.91694520	          0.57139074	          0.00000000	          0.25069593	          0.00000000	          3.39152841	          0.00000000	          0.00000000	          0.00000000	          0.00000000	          0.00000000	          0.00000000	          0.00000000	          0.00000000	          0.00000000	          0.00000000	          0.00000000	          0.00000000	          0.00000000	          0.00000000	          0.00000000	          0.00000000	          0.00000000	          0.00000000	          0.00000000	
8.158	         33.54530802	        471.02169071	         -5.76232215	          0.22658826	          0.00000000	          0.26926116	          0.00000000	         -6.20219027	          0.00000000	        -34.09104019	        453.31287297	        -15.78016006	          0.57140484	          0.00000000	          0.25055361	          0.00000000	          3.39277370	          0.00000000	          0.00000000	          0.00000000	          0.00000000	          0.00000000	          0.00000000	          0.00000000	          0.00000000	          0.00000000	          0.00000000	          0.00000000	          0.00000000	          0.00000000	          0.00000000	          0.00000000	          0.00000000	          0.00000000	          0.00000000	          0.00000000	
8.159	         33.66969396	        471.66779299	         -5.72265851	          0.22658692	          0.00000000	          0.26930724	          0.00000000	         -6.22158161	          0.00000000	        -34.09774043	        453.64681255	        -15.64153610	          0.57141789	          0.00000000	          0.25041424	          0.00000000	          3.39395051	          0.00000000	          0.00000000	          0.00000000	          0.00000000	          0.00000000	          0.00000000	          0.00000000	          0.00000000	          0.00000000	          0.00000000	          0.00000000	          0.00000000	          0.00000000	          0.00000000	          0.00000000	          0.00000000	          0.00000000	          0.00000000	          0.00000000	
8.16	         33.79957071	        472.32015453	         -5.68120168	          0.22658528	          0.00000000	          0.26935407	          0.00000000	         -6.24108329	          0.00000000	        -34.10447496	        453.99793199	        -15.50129907	          0.57142990	          0.00000000	          0.25027793	          0.00000000	          3.39505886	          0.00000000	          0.00000000	          0.00000000	          0.00000000	          0.00000000	          0.00000000	          0.00000000	          0.00000000	          0.00000000	          0.00000000	          0.00000000	          0.00000000	          0.00000000	          0.00000000	          0.00000000	          0.00000000	          0.00000000	          0.00000000	          0.00000000	
8.161	         33.93463393	        472.97739199	         -5.63810400	          0.22658330	          0.00000000	          0.26940146	          0.00000000	         -6.26068320	          0.00000000	        -34.11126375	        454.36641195	        -15.35967980	          0.57144084	          0.00000000	          0.25014480	          0.00000000	          3.39609898	          0.00000000	          0.00000000	          0.00000000	          0.00000000	          0.00000000	          0.00000000	          0.00000000	          0.00000000	          0.00000000	          0.00000000	          0.00000000	          0.00000000	          0.00000000	          0.00000000	          0.00000000	          0.00000000	          0.00000000	          0.00000000	          0.00000000	
8.162	         34.07456363	        473.63811492	         -5.59352786	          0.22658097	          0.00000000	          0.26944927	          0.00000000	         -6.28036893	          0.00000000	        -34.11812835	        454.75238998	        -15.21691351	          0.57145072	          0.00000000	          0.25001494	          0.00000000	          3.39707131	          0.00000000	          0.00000000	          0.00000000	          0.00000000	          0.00000000	          0.00000000	          0.00000000	          0.00000000	          0.00000000	          0.00000000	          0.00000000	          0.00000000	          0.00000000	          0.00000000	          0.00000000	          0.00000000	          0.00000000	          0.00000000	          0.00000000	
